# xmcd
#
# Track frame offsets:
#	150
#	15365
#	29022
#	48055
#	64460
#	78630
#	96875
#	113727
#	129020
#	139097
#	153907
#	171440
#	185860
#	207287
#
# Disc length: 3030
#
# Revision: 1
# Processed by: cddbd v1.5.1PL0 Copyright (c) Steve Scherf et al.
# Submitted via: VisiTrax 2.9.3.171 - For more info visit www.synapsa.com
# Normalized: r0:DSETVAR1
#
DISCID=bd0bd40e
DTITLE=Various Artist - Mr Music Country  10-96
DYEAR=1900
DGENRE=
TTITLE0=Keith Gattis - Scrapin' Off The Pain
TTITLE1=Chris Chaffey with Dale Watson - Loser's Paradise
TTITLE2=Diane Fisher - Fair And Tender Ladies
TTITLE3=Johnny Rodriguez - Big Red Sun Blues
TTITLE4=Southern Action Band - Hillbilly Rockin'
TTITLE5=Becky Hobbs - Barbara
TTITLE6=Hank Sasaki - Adios Sayonara Goodbye
TTITLE7=Dale Watson - A Real Country Song
TTITLE8=Josh Logan - Country Pride
TTITLE9=Penny Gilley - What's In It For Me
TTITLE10=Danny Roy - Behind Her Smile
TTITLE11=Shannan Campbell - There's Gonna Be a Party Tonight
TTITLE12=Joe Pat Hennen - Goodbye To Amarillo
TTITLE13=Steve Bice with Andrea Zonn and Al Perkins - Bhe Ballad Of The Brotehrs
EXTD=
EXTT0=
EXTT1=
EXTT2=
EXTT3=
EXTT4=
EXTT5=
EXTT6=
EXTT7=
EXTT8=
EXTT9=
EXTT10=
EXTT11=
EXTT12=
EXTT13=
PLAYORDER=
